<svg width="562" height="22" viewBox="0 0 562 22" fill="none" xmlns="http://www.w3.org/2000/svg">
<path d="M0.333333 11C0.333333 16.891 5.10896 21.6667 11 21.6667C16.891 21.6667 21.6667 16.891 21.6667 11C21.6667 5.10896 16.891 0.333333 11 0.333333C5.10896 0.333333 0.333333 5.10896 0.333333 11ZM540.333 11C540.333 16.891 545.109 21.6667 551 21.6667C556.891 21.6667 561.667 16.891 561.667 11C561.667 5.10896 556.891 0.333333 551 0.333333C545.109 0.333333 540.333 5.10896 540.333 11ZM11 13H551V9H11V13Z" fill="#EA4343"/>
</svg>
