<svg width="60" height="60" viewBox="0 0 60 60" fill="none" xmlns="http://www.w3.org/2000/svg">
<g clip-path="url(#clip0_162_487)">
<path d="M33.75 3.75C33.75 1.67578 32.0742 0 30 0C27.9258 0 26.25 1.67578 26.25 3.75V32.1914L17.6484 23.5898C16.1836 22.125 13.8047 22.125 12.3398 23.5898C10.875 25.0547 10.875 27.4336 12.3398 28.8984L27.3398 43.8984C28.8047 45.3633 31.1836 45.3633 32.6484 43.8984L47.6484 28.8984C49.1133 27.4336 49.1133 25.0547 47.6484 23.5898C46.1836 22.125 43.8047 22.125 42.3398 23.5898L33.75 32.1914V3.75ZM7.5 41.25C3.36328 41.25 0 44.6133 0 48.75V52.5C0 56.6367 3.36328 60 7.5 60H52.5C56.6367 60 60 56.6367 60 52.5V48.75C60 44.6133 56.6367 41.25 52.5 41.25H40.6055L35.2969 46.5586C32.3672 49.4883 27.6211 49.4883 24.6914 46.5586L19.3945 41.25H7.5ZM50.625 47.8125C51.3709 47.8125 52.0863 48.1088 52.6137 48.6363C53.1412 49.1637 53.4375 49.8791 53.4375 50.625C53.4375 51.3709 53.1412 52.0863 52.6137 52.6137C52.0863 53.1412 51.3709 53.4375 50.625 53.4375C49.8791 53.4375 49.1637 53.1412 48.6363 52.6137C48.1088 52.0863 47.8125 51.3709 47.8125 50.625C47.8125 49.8791 48.1088 49.1637 48.6363 48.6363C49.1637 48.1088 49.8791 47.8125 50.625 47.8125Z" fill="white"/>
</g>
<defs>
<clipPath id="clip0_162_487">
<rect width="60" height="60" fill="white"/>
</clipPath>
</defs>
</svg>
