<svg width="60" height="60" viewBox="0 0 60 60" fill="none" xmlns="http://www.w3.org/2000/svg">
<path d="M33.75 15.9375V0H10.3125C8.75391 0 7.5 1.25391 7.5 2.8125V57.1875C7.5 58.7461 8.75391 60 10.3125 60H49.6875C51.2461 60 52.5 58.7461 52.5 57.1875V18.75H36.5625C35.0156 18.75 33.75 17.4844 33.75 15.9375ZM41.3883 41.2512H33.75V50.6262C33.75 51.6621 32.9109 52.5012 31.875 52.5012H28.125C27.0891 52.5012 26.25 51.6621 26.25 50.6262V41.2512H18.6117C16.9383 41.2512 16.1027 39.225 17.291 38.0449L28.5902 26.8301C29.3695 26.0555 30.6281 26.0555 31.4074 26.8301L42.7066 38.0449C43.8961 39.225 43.0617 41.2512 41.3883 41.2512ZM51.6797 12.3047L40.207 0.820312C39.6797 0.292969 38.9648 0 38.2148 0H37.5V15H52.5V14.2852C52.5 13.5469 52.207 12.832 51.6797 12.3047Z" fill="white"/>
</svg>
