<svg width="280" height="114" viewBox="0 0 280 114" fill="none" xmlns="http://www.w3.org/2000/svg">
<rect width="280" height="114" rx="40" fill="#EA4343"/>
<path d="M107.955 60.6309H78.7051V57.0449H107.955V60.6309ZM95.9316 66.1504H91.502V59.2949H95.9316V66.1504ZM104.229 54.4258H82.3438V42.6484H104.229V54.4258ZM86.7383 50.9277H99.8164V46.1113H86.7383V50.9277ZM104.738 72.6895H82.1152V69.0684H104.738V72.6895ZM86.6152 70.2637H82.1152V63.3555H86.6152V70.2637ZM120.207 43.3691C121.883 43.3691 123.395 43.709 124.742 44.3887C126.09 45.0566 127.145 45.9883 127.906 47.1836C128.68 48.3672 129.066 49.7148 129.066 51.2266C129.066 52.7383 128.68 54.0918 127.906 55.2871C127.145 56.4707 126.09 57.4023 124.742 58.082C123.406 58.75 121.895 59.084 120.207 59.084C118.543 59.084 117.031 58.75 115.672 58.082C114.312 57.4023 113.246 56.4707 112.473 55.2871C111.699 54.0918 111.312 52.7383 111.312 51.2266C111.312 49.7148 111.699 48.3672 112.473 47.1836C113.246 45.9883 114.312 45.0566 115.672 44.3887C117.031 43.709 118.543 43.3691 120.207 43.3691ZM120.207 47.2363C119.352 47.2363 118.59 47.3945 117.922 47.7109C117.254 48.0273 116.727 48.4902 116.34 49.0996C115.953 49.6973 115.76 50.4062 115.76 51.2266C115.76 52.0586 115.953 52.7734 116.34 53.3711C116.727 53.957 117.254 54.4141 117.922 54.7422C118.59 55.0586 119.352 55.2168 120.207 55.2168C121.062 55.2168 121.83 55.0586 122.51 54.7422C123.201 54.4141 123.734 53.957 124.109 53.3711C124.496 52.7734 124.689 52.0586 124.689 51.2266C124.689 50.4062 124.496 49.6973 124.109 49.0996C123.734 48.4902 123.201 48.0273 122.51 47.7109C121.83 47.3945 121.062 47.2363 120.207 47.2363ZM136.713 73.3223H132.266V41.207H136.713V73.3223ZM109.977 63.127C112.555 63.1152 114.898 63.0859 117.008 63.0391C119.117 62.9922 121.355 62.8984 123.723 62.7578C126.102 62.6055 128.346 62.3887 130.455 62.1074L130.771 65.3242C128.604 65.7461 126.342 66.0625 123.986 66.2734C121.631 66.4844 119.416 66.6191 117.342 66.6777C115.279 66.7363 113 66.7656 110.504 66.7656L109.977 63.127ZM166.191 73.2344H161.762V41.207H166.191V73.2344ZM170.938 57.4492H165.207V53.7754H170.938V57.4492ZM159.582 49.6094H140.791V46.0059H159.582V49.6094ZM150.266 51.3848C151.824 51.3848 153.225 51.7129 154.467 52.3691C155.709 53.0137 156.682 53.916 157.385 55.0762C158.1 56.2363 158.457 57.5488 158.457 59.0137C158.457 60.4785 158.1 61.791 157.385 62.9512C156.682 64.1113 155.709 65.0195 154.467 65.6758C153.225 66.3203 151.824 66.6426 150.266 66.6426C148.707 66.6426 147.307 66.3203 146.064 65.6758C144.822 65.0195 143.85 64.1113 143.146 62.9512C142.443 61.791 142.092 60.4785 142.092 59.0137C142.092 57.5488 142.443 56.2363 143.146 55.0762C143.85 53.916 144.822 53.0137 146.064 52.3691C147.307 51.7129 148.707 51.3848 150.266 51.3848ZM150.266 55.041C149.527 55.041 148.859 55.2051 148.262 55.5332C147.676 55.8496 147.213 56.3125 146.873 56.9219C146.545 57.5195 146.381 58.2168 146.381 59.0137C146.381 59.8223 146.545 60.5254 146.873 61.123C147.213 61.7207 147.676 62.1836 148.262 62.5117C148.859 62.8281 149.527 62.9863 150.266 62.9863C151.027 62.9863 151.701 62.8281 152.287 62.5117C152.873 62.1836 153.324 61.7207 153.641 61.123C153.969 60.5254 154.133 59.8223 154.133 59.0137C154.133 58.2168 153.969 57.5195 153.641 56.9219C153.324 56.3125 152.873 55.8496 152.287 55.5332C151.701 55.2051 151.027 55.041 150.266 55.041ZM152.498 47.377H148.033V41.7168H152.498V47.377ZM198.957 73.2344H194.404V41.207H198.957V73.2344ZM189.377 44.582C189.377 48.0156 188.914 51.1328 187.988 53.9336C187.074 56.7227 185.521 59.2891 183.33 61.6328C181.139 63.9648 178.203 66.0039 174.523 67.75L172.168 64.1641C175.25 62.7109 177.723 61.0762 179.586 59.2598C181.449 57.4434 182.803 55.4043 183.646 53.1426C184.49 50.8809 184.912 48.291 184.912 45.373V44.582H189.377ZM186.969 48.1152H173.873V44.582H186.969V48.1152Z" fill="white"/>
</svg>
